<svg xmlns="http://www.w3.org/2000/svg" viewBox="0 0 1080 720" width="1080" height="720" font-family="'SF Pro Display','SF Pro Text','Helvetica Neue',Arial,sans-serif">
<defs>
<marker id="arr-client" markerWidth="8" markerHeight="6" refX="7" refY="3" orient="auto"><path d="M0,0 L8,3 L0,6 Z" fill="#007AFF"/></marker>
<marker id="arr-gateway" markerWidth="8" markerHeight="6" refX="7" refY="3" orient="auto"><path d="M0,0 L8,3 L0,6 Z" fill="#5AC8FA"/></marker>
<marker id="arr-core" markerWidth="8" markerHeight="6" refX="7" refY="3" orient="auto"><path d="M0,0 L8,3 L0,6 Z" fill="#BF5AF2"/></marker>
<marker id="arr-memory" markerWidth="8" markerHeight="6" refX="7" refY="3" orient="auto"><path d="M0,0 L8,3 L0,6 Z" fill="#FF9F0A"/></marker>
<marker id="arr-data" markerWidth="8" markerHeight="6" refX="7" refY="3" orient="auto"><path d="M0,0 L8,3 L0,6 Z" fill="#30D158"/></marker>
<marker id="arr-ops" markerWidth="8" markerHeight="6" refX="7" refY="3" orient="auto"><path d="M0,0 L8,3 L0,6 Z" fill="#FF453A"/></marker>
<marker id="arr-model" markerWidth="8" markerHeight="6" refX="7" refY="3" orient="auto"><path d="M0,0 L8,3 L0,6 Z" fill="#5856D6"/></marker>
<marker id="arr-gray" markerWidth="8" markerHeight="6" refX="7" refY="3" orient="auto"><path d="M0,0 L8,3 L0,6 Z" fill="#8E8E93"/></marker>
<filter id="s1"><feDropShadow dx="0" dy="1" stdDeviation="1.5" flood-color="#00000012"/></filter>
<filter id="s2"><feDropShadow dx="0" dy="2" stdDeviation="4" flood-color="#00000018"/></filter>
</defs>
<rect x="0" y="0" width="1080" height="720" rx="0" fill="#F5F5F7" stroke="none" stroke-width="0" />
<text x="540" y="28" text-anchor="middle" font-size="14" font-weight="700" fill="#1D1D1F" >Jarvis 当前系统架构</text>
<text x="540" y="46" text-anchor="middle" font-size="10" font-weight="400" fill="#8E8E93" >Personal Memory System · v1 Production · 自托管部署</text>
<rect x="20" y="58" width="1040" height="72" rx="10" fill="#FFFFFF" stroke="#D2D2D7" stroke-width="1" filter="url(#s1)"/>
<text x="38" y="73" text-anchor="start" font-size="8" font-weight="700" fill="#8E8E93" letter-spacing="0.6">同步请求路径  Sync Request Path</text>
<rect x="49" y="75" width="126" height="38" rx="7" fill="#EAF2FF" stroke="#007AFF" stroke-width="1.5" filter="url(#s1)"/>
<text x="112" y="89" text-anchor="middle" font-size="10" font-weight="600" fill="#007AFF" >客户端应用</text>
<text x="112" y="103" text-anchor="middle" font-size="8.5" font-weight="400" fill="#3A3A3C" >Client Apps</text>
<rect x="195" y="75" width="126" height="38" rx="7" fill="#E8F7FF" stroke="#5AC8FA" stroke-width="1.5" filter="url(#s1)"/>
<text x="258" y="89" text-anchor="middle" font-size="10" font-weight="600" fill="#5AC8FA" >对话网关</text>
<text x="258" y="103" text-anchor="middle" font-size="8.5" font-weight="400" fill="#3A3A3C" >Gateway API</text>
<rect x="379" y="75" width="126" height="38" rx="7" fill="#F3EEFF" stroke="#BF5AF2" stroke-width="1.5" filter="url(#s1)"/>
<text x="442" y="89" text-anchor="middle" font-size="10" font-weight="600" fill="#BF5AF2" >核心回复</text>
<text x="442" y="103" text-anchor="middle" font-size="8.5" font-weight="400" fill="#3A3A3C" >Core Reply</text>
<rect x="599" y="75" width="126" height="38" rx="7" fill="#E9F9EE" stroke="#30D158" stroke-width="1.5" filter="url(#s1)"/>
<text x="662" y="89" text-anchor="middle" font-size="10" font-weight="600" fill="#30D158" >状态持久化</text>
<text x="662" y="103" text-anchor="middle" font-size="8.5" font-weight="400" fill="#3A3A3C" >State Write</text>
<line x1="175" y1="94" x2="195" y2="94" stroke="#007AFF" stroke-width="1.4"  marker-end="url(#arr-client)"/>
<line x1="321" y1="94" x2="379" y2="94" stroke="#5AC8FA" stroke-width="1.4"  marker-end="url(#arr-gateway)"/>
<line x1="505" y1="94" x2="599" y2="94" stroke="#BF5AF2" stroke-width="1.4"  marker-end="url(#arr-core)"/>
<rect x="20" y="140" width="1040" height="462" rx="12" fill="#FAFAFA" stroke="#D2D2D7" stroke-width="1.2" filter="url(#s2)"/>
<text x="38" y="156" text-anchor="start" font-size="8" font-weight="700" fill="#6E6E73" letter-spacing="1.6">PLATFORM</text>
<rect x="36" y="164" width="152" height="428" rx="10" fill="#EAF2FF" stroke="#007AFF" stroke-width="1.4" filter="url(#s1)"/>
<text x="112" y="178" text-anchor="middle" font-size="7.5" font-weight="700" fill="#007AFF" letter-spacing="0.5">本地客户端层</text>
<rect x="200" y="164" width="116" height="428" rx="10" fill="#E8F7FF" stroke="#5AC8FA" stroke-width="1.4" filter="url(#s1)"/>
<text x="258" y="178" text-anchor="middle" font-size="7.5" font-weight="700" fill="#5AC8FA" letter-spacing="0.5">对话网关层</text>
<rect x="328" y="164" width="228" height="428" rx="10" fill="#F3EEFF" stroke="#BF5AF2" stroke-width="1.4" filter="url(#s1)"/>
<text x="442" y="178" text-anchor="middle" font-size="7.5" font-weight="700" fill="#BF5AF2" letter-spacing="0.5">核心编排层</text>
<rect x="568" y="164" width="188" height="428" rx="10" fill="#E9F9EE" stroke="#30D158" stroke-width="1.4" filter="url(#s1)"/>
<text x="662" y="178" text-anchor="middle" font-size="7.5" font-weight="700" fill="#30D158" letter-spacing="0.5">持久化层</text>
<rect x="768" y="164" width="276" height="428" rx="10" fill="#FFF1F0" stroke="#FF453A" stroke-width="1.4" filter="url(#s1)"/>
<text x="906" y="178" text-anchor="middle" font-size="7.5" font-weight="700" fill="#FF453A" letter-spacing="0.5">部署运维层</text>
<rect x="45" y="188" width="134" height="40" rx="7" fill="#FFFFFF" stroke="#007AFF" stroke-width="1.3" filter="url(#s1)"/><text x="112" y="203" text-anchor="middle" font-size="10" font-weight="600" fill="#007AFF" >Jarvis iPhone</text><text x="112" y="217" text-anchor="middle" font-size="8.5" font-weight="400" fill="#3A3A3C" >SwiftUI · SSE 流式</text><line x1="112" y1="228" x2="112" y2="238" stroke="#007AFF" stroke-width="1.2" marker-end="url(#arr-client)"/><rect x="45" y="238" width="134" height="40" rx="7" fill="#FFFFFF" stroke="#007AFF" stroke-width="1.3" filter="url(#s1)"/><text x="112" y="253" text-anchor="middle" font-size="10" font-weight="600" fill="#007AFF" >Jarvis macOS</text><text x="112" y="267" text-anchor="middle" font-size="8.5" font-weight="400" fill="#3A3A3C" >SwiftUI · 状态恢复</text><line x1="112" y1="278" x2="112" y2="288" stroke="#007AFF" stroke-width="1.2" marker-end="url(#arr-client)"/><rect x="45" y="288" width="134" height="40" rx="7" fill="#FFFFFF" stroke="#007AFF" stroke-width="1.3" filter="url(#s1)"/><text x="112" y="303" text-anchor="middle" font-size="10" font-weight="600" fill="#007AFF" >本地缓存 Cache</text><text x="112" y="317" text-anchor="middle" font-size="8.5" font-weight="400" fill="#3A3A3C" > 离线 UI · 恢复</text>
<rect x="207" y="188" width="102" height="40" rx="7" fill="#FFFFFF" stroke="#5AC8FA" stroke-width="1.3" filter="url(#s1)"/><text x="258" y="203" text-anchor="middle" font-size="10" font-weight="600" fill="#5AC8FA" >HTTP Server</text><text x="258" y="217" text-anchor="middle" font-size="8.5" font-weight="400" fill="#3A3A3C" >API · Auth · 限流</text><line x1="258" y1="228" x2="258" y2="238" stroke="#5AC8FA" stroke-width="1.2" marker-end="url(#arr-gateway)"/><rect x="207" y="238" width="102" height="40" rx="7" fill="#FFFFFF" stroke="#5AC8FA" stroke-width="1.3" filter="url(#s1)"/><text x="258" y="253" text-anchor="middle" font-size="10" font-weight="600" fill="#5AC8FA" >State Sync</text><text x="258" y="267" text-anchor="middle" font-size="8.5" font-weight="400" fill="#3A3A3C" >CRUD · SSE · 恢复</text>
<rect x="336" y="186" width="102" height="398" rx="8" fill="#FFFFFF" stroke="#BF5AF2" stroke-width="1" filter="url(#s1)"/>
<text x="387" y="198" text-anchor="middle" font-size="7.5" font-weight="700" fill="#BF5AF2" >对话循环</text>
<rect x="446" y="186" width="100" height="398" rx="8" fill="#FFFFFF" stroke="#FF9F0A" stroke-width="1" filter="url(#s1)"/>
<text x="496" y="198" text-anchor="middle" font-size="7.5" font-weight="700" fill="#FF9F0A" >记忆信号</text>
<rect x="342" y="208" width="90" height="38" rx="7" fill="#FFFFFF" stroke="#BF5AF2" stroke-width="1.3" filter="url(#s1)"/><text x="387" y="223" text-anchor="middle" font-size="10" font-weight="600" fill="#BF5AF2" >Chat Service</text><text x="387" y="237" text-anchor="middle" font-size="8.5" font-weight="400" fill="#3A3A3C" >解析 · 回复编排</text>
<line x1="387" y1="246" x2="387" y2="258" stroke="#BF5AF2" stroke-width="1.1" marker-end="url(#arr-core)"/>
<rect x="342" y="258" width="90" height="38" rx="7" fill="#FFFFFF" stroke="#BF5AF2" stroke-width="1.3" filter="url(#s1)"/><text x="387" y="273" text-anchor="middle" font-size="10" font-weight="600" fill="#BF5AF2" >Model Provider</text><text x="387" y="287" text-anchor="middle" font-size="8.5" font-weight="400" fill="#3A3A3C" >LLM · 回退策略</text>
<rect x="452" y="208" width="88" height="38" rx="7" fill="#FFFFFF" stroke="#FF9F0A" stroke-width="1.3" filter="url(#s1)"/><text x="496" y="223" text-anchor="middle" font-size="10" font-weight="600" fill="#FF9F0A" >Retrieval Builder</text><text x="496" y="237" text-anchor="middle" font-size="8.5" font-weight="400" fill="#3A3A3C" >事实 · 历史召回</text>
<line x1="496" y1="246" x2="496" y2="258" stroke="#FF9F0A" stroke-width="1.1" marker-end="url(#arr-memory)"/>
<rect x="452" y="258" width="88" height="38" rx="7" fill="#FFFFFF" stroke="#FF9F0A" stroke-width="1.3" filter="url(#s1)"/><text x="496" y="273" text-anchor="middle" font-size="10" font-weight="600" fill="#FF9F0A" >Turn Extraction</text><text x="496" y="287" text-anchor="middle" font-size="8.5" font-weight="400" fill="#3A3A3C" >事实 · 事件抽取</text>
<line x1="496" y1="296" x2="496" y2="308" stroke="#FF9F0A" stroke-width="1.1" marker-end="url(#arr-memory)"/>
<rect x="452" y="308" width="88" height="38" rx="7" fill="#FFFFFF" stroke="#FF9F0A" stroke-width="1.3" filter="url(#s1)"/><text x="496" y="323" text-anchor="middle" font-size="10" font-weight="600" fill="#FF9F0A" >Daily Reflection</text><text x="496" y="337" text-anchor="middle" font-size="8.5" font-weight="400" fill="#3A3A3C" >开放问题沉淀</text>
<rect x="575" y="188" width="174" height="50" rx="7" fill="#FFFFFF" stroke="#30D158" stroke-width="1.3" filter="url(#s1)"/><text x="662" y="203" text-anchor="middle" font-size="10" font-weight="600" fill="#30D158" >SQLite Memory DB</text><text x="662" y="217" text-anchor="middle" font-size="8.5" font-weight="400" fill="#3A3A3C" >消息 · 事实 · 日志</text><line x1="662" y1="238" x2="662" y2="248" stroke="#30D158" stroke-width="1.2" marker-end="url(#arr-data)"/><rect x="575" y="248" width="174" height="50" rx="7" fill="#FFFFFF" stroke="#30D158" stroke-width="1.3" filter="url(#s1)"/><text x="662" y="263" text-anchor="middle" font-size="10" font-weight="600" fill="#30D158" >Core Tables</text><text x="662" y="277" text-anchor="middle" font-size="8.5" font-weight="400" fill="#3A3A3C" >Schema · Indexes</text>
<rect x="776" y="188" width="260" height="40" rx="7" fill="#FFFFFF" stroke="#FF453A" stroke-width="1.3" filter="url(#s1)"/><text x="906" y="203" text-anchor="middle" font-size="10" font-weight="600" fill="#FF453A" >Cloud Host</text><text x="906" y="217" text-anchor="middle" font-size="8.5" font-weight="400" fill="#3A3A3C" >云端 / DigitalOcean</text>
<line x1="906" y1="228" x2="906" y2="238" stroke="#FF453A" stroke-width="1" marker-end="url(#arr-ops)"/>
<rect x="776" y="238" width="260" height="40" rx="7" fill="#FFFFFF" stroke="#FF453A" stroke-width="1.3" filter="url(#s1)"/><text x="906" y="253" text-anchor="middle" font-size="10" font-weight="600" fill="#FF453A" >Caddy HTTPS</text><text x="906" y="267" text-anchor="middle" font-size="8.5" font-weight="400" fill="#3A3A3C" >Ingress · TLS · 反向代理</text>
<line x1="906" y1="278" x2="906" y2="288" stroke="#FF453A" stroke-width="1" marker-end="url(#arr-ops)"/>
<rect x="776" y="288" width="260" height="40" rx="7" fill="#FFFFFF" stroke="#FF453A" stroke-width="1.3" filter="url(#s1)"/><text x="906" y="303" text-anchor="middle" font-size="10" font-weight="600" fill="#FF453A" >Docker Compose</text><text x="906" y="317" text-anchor="middle" font-size="8.5" font-weight="400" fill="#3A3A3C" >运行时 · 服务编排</text>
<line x1="906" y1="328" x2="906" y2="338" stroke="#FF453A" stroke-width="1" marker-end="url(#arr-ops)"/>
<rect x="776" y="338" width="260" height="40" rx="7" fill="#FFFFFF" stroke="#FF453A" stroke-width="1.3" filter="url(#s1)"/><text x="906" y="353" text-anchor="middle" font-size="10" font-weight="600" fill="#FF453A" >Backup / Restore</text><text x="906" y="367" text-anchor="middle" font-size="8.5" font-weight="400" fill="#3A3A3C" >SQLite · 安全备份</text>
<rect x="776" y="388" width="260" height="40" rx="7" fill="#FFFFFF" stroke="#FF453A" stroke-width="1.3" filter="url(#s1)"/><text x="906" y="403" text-anchor="middle" font-size="10" font-weight="600" fill="#FF453A" >Model Endpoint</text><text x="906" y="417" text-anchor="middle" font-size="8.5" font-weight="400" fill="#3A3A3C" >OpenAI-compatible API</text>
<polyline points="179,308 194,308 194,208 207,208" stroke="#007AFF" stroke-width="1.4" fill="none"  marker-end="url(#arr-client)"/>
<polyline points="309,258 322,258 322,227 342,227" stroke="#5AC8FA" stroke-width="1.4" fill="none"  marker-end="url(#arr-gateway)"/>
<polyline points="432,227 438,227 438,227 452,227" stroke="#BF5AF2" stroke-width="1.4" fill="none"  marker-end="url(#arr-core)"/>
<polyline points="432,235 442,235 442,277 452,277" stroke="#BF5AF2" stroke-width="1.4" fill="none"  marker-end="url(#arr-core)"/>
<polyline points="540,227 562,227 562,213 575,213" stroke="#FF9F0A" stroke-width="1.4" fill="none"  marker-end="url(#arr-memory)"/>
<polyline points="540,277 567,277 567,219 575,219" stroke="#FF9F0A" stroke-width="1.4" fill="none"  marker-end="url(#arr-memory)"/>
<polyline points="540,327 572,327 572,225 575,225" stroke="#FF9F0A" stroke-width="1.4" fill="none"  marker-end="url(#arr-memory)"/>
<polyline points="432,277 552,277 552,582 762,582 762,408 776,408" stroke="#FF453A" stroke-width="1.4" fill="none" stroke-dasharray="5,3" marker-end="url(#arr-ops)"/>
<polyline points="776,358 753,358 753,231" stroke="#FF453A" stroke-width="1.4" fill="none" stroke-dasharray="5,3" marker-end="url(#arr-ops)"/>
<rect x="20" y="612" width="1040" height="68" rx="10" fill="#FFFFFF" stroke="#D2D2D7" stroke-width="1" filter="url(#s1)"/>
<text x="38" y="626" text-anchor="start" font-size="8" font-weight="700" fill="#8E8E93" letter-spacing="0.6">异步记忆管道  Async Memory Pipeline</text>
<rect x="351" y="629" width="122" height="38" rx="7" fill="#FFF4E5" stroke="#FF9F0A" stroke-width="1.3" filter="url(#s1)"/>
<text x="412" y="643" text-anchor="middle" font-size="10" font-weight="600" fill="#FF9F0A" >Turn Extract</text>
<text x="412" y="656" text-anchor="middle" font-size="8.5" font-weight="400" fill="#3A3A3C" >事实 · 事件</text>
<rect x="601" y="629" width="122" height="38" rx="7" fill="#FFF4E5" stroke="#FF9F0A" stroke-width="1.3" filter="url(#s1)"/>
<text x="662" y="643" text-anchor="middle" font-size="10" font-weight="600" fill="#FF9F0A" >Daily Reflect</text>
<text x="662" y="656" text-anchor="middle" font-size="8.5" font-weight="400" fill="#3A3A3C" >开放问题沉淀</text>
<rect x="785" y="629" width="122" height="38" rx="7" fill="#E9F9EE" stroke="#30D158" stroke-width="1.3" filter="url(#s1)"/>
<text x="846" y="643" text-anchor="middle" font-size="10" font-weight="600" fill="#30D158" >SQLite Memory</text>
<text x="846" y="656" text-anchor="middle" font-size="8.5" font-weight="400" fill="#3A3A3C" >写入 · 索引</text>
<line x1="473" y1="648" x2="601" y2="648" stroke="#FF9F0A" stroke-width="1.4"  marker-end="url(#arr-memory)"/>
<line x1="723" y1="648" x2="785" y2="648" stroke="#FF9F0A" stroke-width="1.4"  marker-end="url(#arr-memory)"/>
<polyline points="540,287 548,287 548,607 412,607 412,629" stroke="#FF9F0A" stroke-width="1.4" fill="none" stroke-dasharray="5,3" marker-end="url(#arr-memory)"/>
<rect x="830" y="620" width="226" height="56" rx="8" fill="#FFFFFF" stroke="#D2D2D7" stroke-width="1" />
<text x="842" y="633" text-anchor="start" font-size="7.5" font-weight="700" fill="#6E6E73" letter-spacing="0.8">LEGEND</text>
<line x1="842" y1="646" x2="868" y2="646" stroke="#8E8E93" stroke-width="1.6" marker-end="url(#arr-gray)"/>
<text x="874" y="649" text-anchor="start" font-size="8" font-weight="400" fill="#3A3A3C" >同步数据流</text>
<line x1="842" y1="664" x2="868" y2="664" stroke="#FF453A" stroke-width="1.4" stroke-dasharray="4,2" marker-end="url(#arr-ops)"/>
<text x="874" y="667" text-anchor="start" font-size="8" font-weight="400" fill="#3A3A3C" >外部 API / 异步写入</text>
</svg>