<svg xmlns="http://www.w3.org/2000/svg" viewBox="0 0 1200 780" width="1200" height="780" font-family="'SF Pro Display','SF Pro Text','Helvetica Neue',Arial,sans-serif">
<defs>
<marker id="arr-client" markerWidth="8" markerHeight="6" refX="7" refY="3" orient="auto"><path d="M0,0 L8,3 L0,6 Z" fill="#007AFF"/></marker>
<marker id="arr-gateway" markerWidth="8" markerHeight="6" refX="7" refY="3" orient="auto"><path d="M0,0 L8,3 L0,6 Z" fill="#5AC8FA"/></marker>
<marker id="arr-core" markerWidth="8" markerHeight="6" refX="7" refY="3" orient="auto"><path d="M0,0 L8,3 L0,6 Z" fill="#BF5AF2"/></marker>
<marker id="arr-memory" markerWidth="8" markerHeight="6" refX="7" refY="3" orient="auto"><path d="M0,0 L8,3 L0,6 Z" fill="#FF9F0A"/></marker>
<marker id="arr-data" markerWidth="8" markerHeight="6" refX="7" refY="3" orient="auto"><path d="M0,0 L8,3 L0,6 Z" fill="#30D158"/></marker>
<marker id="arr-ops" markerWidth="8" markerHeight="6" refX="7" refY="3" orient="auto"><path d="M0,0 L8,3 L0,6 Z" fill="#FF453A"/></marker>
<marker id="arr-model" markerWidth="8" markerHeight="6" refX="7" refY="3" orient="auto"><path d="M0,0 L8,3 L0,6 Z" fill="#5856D6"/></marker>
<marker id="arr-gray" markerWidth="8" markerHeight="6" refX="7" refY="3" orient="auto"><path d="M0,0 L8,3 L0,6 Z" fill="#8E8E93"/></marker>
<filter id="s1"><feDropShadow dx="0" dy="1" stdDeviation="1.5" flood-color="#00000012"/></filter>
<filter id="s2"><feDropShadow dx="0" dy="2" stdDeviation="4" flood-color="#00000018"/></filter>
</defs>
<rect x="0" y="0" width="1200" height="780" rx="0" fill="#F5F5F7" stroke="none" stroke-width="0" />
<text x="600" y="28" text-anchor="middle" font-size="15" font-weight="700" fill="#1D1D1F" >Jarvis 目标系统架构</text>
<text x="600" y="47" text-anchor="middle" font-size="10.5" font-weight="400" fill="#8E8E93" >Personal Memory System · v2 Roadmap · 结构化记忆 + 多模型调度</text>
<rect x="20" y="58" width="1160" height="76" rx="10" fill="#FFFFFF" stroke="#D2D2D7" stroke-width="1" filter="url(#s1)"/>
<text x="38" y="73" text-anchor="start" font-size="8" font-weight="700" fill="#8E8E93" letter-spacing="0.6">同步请求路径  Sync Request Path</text>
<rect x="46" y="76" width="130" height="40" rx="7" fill="#EAF2FF" stroke="#007AFF" stroke-width="1.5" filter="url(#s1)"/>
<text x="111" y="91" text-anchor="middle" font-size="10" font-weight="600" fill="#007AFF" >客户端应用</text>
<text x="111" y="105" text-anchor="middle" font-size="8.5" font-weight="400" fill="#3A3A3C" >Client Apps</text>
<rect x="192" y="76" width="130" height="40" rx="7" fill="#E8F7FF" stroke="#5AC8FA" stroke-width="1.5" filter="url(#s1)"/>
<text x="257" y="91" text-anchor="middle" font-size="10" font-weight="600" fill="#5AC8FA" >对话网关</text>
<text x="257" y="105" text-anchor="middle" font-size="8.5" font-weight="400" fill="#3A3A3C" >Gateway API</text>
<rect x="337" y="76" width="130" height="40" rx="7" fill="#F3EEFF" stroke="#BF5AF2" stroke-width="1.5" filter="url(#s1)"/>
<text x="402" y="91" text-anchor="middle" font-size="10" font-weight="600" fill="#BF5AF2" >核心回复</text>
<text x="402" y="105" text-anchor="middle" font-size="8.5" font-weight="400" fill="#3A3A3C" >Core Reply</text>
<rect x="544" y="76" width="130" height="40" rx="7" fill="#FFF4E5" stroke="#FF9F0A" stroke-width="1.5" filter="url(#s1)"/>
<text x="609" y="91" text-anchor="middle" font-size="10" font-weight="600" fill="#FF9F0A" >记忆装配</text>
<text x="609" y="105" text-anchor="middle" font-size="8.5" font-weight="400" fill="#3A3A3C" >Context Packet</text>
<rect x="887" y="76" width="130" height="40" rx="7" fill="#EDE8FF" stroke="#5856D6" stroke-width="1.5" filter="url(#s1)"/>
<text x="952" y="91" text-anchor="middle" font-size="10" font-weight="600" fill="#5856D6" >主模型调用</text>
<text x="952" y="105" text-anchor="middle" font-size="8.5" font-weight="400" fill="#3A3A3C" >Primary Model</text>
<line x1="176" y1="96" x2="192" y2="96" stroke="#007AFF" stroke-width="1.4"  marker-end="url(#arr-client)"/>
<line x1="322" y1="96" x2="337" y2="96" stroke="#5AC8FA" stroke-width="1.4"  marker-end="url(#arr-gateway)"/>
<line x1="467" y1="96" x2="544" y2="96" stroke="#BF5AF2" stroke-width="1.4"  marker-end="url(#arr-core)"/>
<line x1="674" y1="96" x2="887" y2="96" stroke="#FF9F0A" stroke-width="1.4"  marker-end="url(#arr-memory)"/>
<rect x="20" y="144" width="1160" height="490" rx="12" fill="#FAFAFA" stroke="#D2D2D7" stroke-width="1.2" filter="url(#s2)"/>
<text x="38" y="160" text-anchor="start" font-size="8" font-weight="700" fill="#6E6E73" letter-spacing="1.8">SYSTEM</text>
<rect x="36" y="168" width="150" height="456" rx="10" fill="#EAF2FF" stroke="#007AFF" stroke-width="1.4" filter="url(#s1)"/>
<text x="111" y="182" text-anchor="middle" font-size="7.5" font-weight="700" fill="#007AFF" letter-spacing="0.5">输入表面层</text>
<rect x="190" y="168" width="134" height="456" rx="10" fill="#E8F7FF" stroke="#5AC8FA" stroke-width="1.4" filter="url(#s1)"/>
<text x="257" y="182" text-anchor="middle" font-size="7.5" font-weight="700" fill="#5AC8FA" letter-spacing="0.5">对话网关层</text>
<rect x="328" y="168" width="148" height="456" rx="10" fill="#F3EEFF" stroke="#BF5AF2" stroke-width="1.4" filter="url(#s1)"/>
<text x="402" y="182" text-anchor="middle" font-size="7.5" font-weight="700" fill="#BF5AF2" letter-spacing="0.5">核心系统层</text>
<rect x="480" y="168" width="258" height="456" rx="10" fill="#FFF4E5" stroke="#FF9F0A" stroke-width="1.4" filter="url(#s1)"/>
<text x="609" y="182" text-anchor="middle" font-size="7.5" font-weight="700" fill="#FF9F0A" letter-spacing="0.5">记忆后端层</text>
<rect x="742" y="168" width="420" height="456" rx="10" fill="#EDE8FF" stroke="#5856D6" stroke-width="1.4" filter="url(#s1)"/>
<text x="952" y="182" text-anchor="middle" font-size="7.5" font-weight="700" fill="#5856D6" letter-spacing="0.5">模型与存储层</text>
<rect x="44" y="192" width="134" height="42" rx="7" fill="#FFFFFF" stroke="#007AFF" stroke-width="1.3" filter="url(#s1)"/><text x="111" y="207" text-anchor="middle" font-size="10" font-weight="600" fill="#007AFF" >Jarvis iPhone</text><text x="111" y="221" text-anchor="middle" font-size="8.5" font-weight="400" fill="#3A3A3C" >SwiftUI · SSE 流式</text><line x1="111" y1="234" x2="111" y2="244" stroke="#007AFF" stroke-width="1.2" marker-end="url(#arr-client)"/><rect x="44" y="244" width="134" height="42" rx="7" fill="#FFFFFF" stroke="#007AFF" stroke-width="1.3" filter="url(#s1)"/><text x="111" y="259" text-anchor="middle" font-size="10" font-weight="600" fill="#007AFF" >Jarvis macOS</text><text x="111" y="273" text-anchor="middle" font-size="8.5" font-weight="400" fill="#3A3A3C" >SwiftUI · 状态恢复</text><line x1="111" y1="286" x2="111" y2="296" stroke="#007AFF" stroke-width="1.2" marker-end="url(#arr-client)"/><rect x="44" y="296" width="134" height="42" rx="7" fill="#FFFFFF" stroke="#007AFF" stroke-width="1.3" filter="url(#s1)"/><text x="111" y="311" text-anchor="middle" font-size="10" font-weight="600" fill="#007AFF" >图像 / 位置输入</text><text x="111" y="325" text-anchor="middle" font-size="8.5" font-weight="400" fill="#3A3A3C" >Image · Location · OCR</text>
<rect x="197" y="192" width="120" height="42" rx="7" fill="#FFFFFF" stroke="#5AC8FA" stroke-width="1.3" filter="url(#s1)"/><text x="257" y="207" text-anchor="middle" font-size="10" font-weight="600" fill="#5AC8FA" >HTTP Gateway</text><text x="257" y="221" text-anchor="middle" font-size="8.5" font-weight="400" fill="#3A3A3C" >Auth · 限流 · 路由</text><line x1="257" y1="234" x2="257" y2="244" stroke="#5AC8FA" stroke-width="1.2" marker-end="url(#arr-gateway)"/><rect x="197" y="244" width="120" height="42" rx="7" fill="#FFFFFF" stroke="#5AC8FA" stroke-width="1.3" filter="url(#s1)"/><text x="257" y="259" text-anchor="middle" font-size="10" font-weight="600" fill="#5AC8FA" >Reply Request</text><text x="257" y="273" text-anchor="middle" font-size="8.5" font-weight="400" fill="#3A3A3C" >对话入口 · 参数</text><line x1="257" y1="286" x2="257" y2="296" stroke="#5AC8FA" stroke-width="1.2" marker-end="url(#arr-gateway)"/><rect x="197" y="296" width="120" height="42" rx="7" fill="#FFFFFF" stroke="#5AC8FA" stroke-width="1.3" filter="url(#s1)"/><text x="257" y="311" text-anchor="middle" font-size="10" font-weight="600" fill="#5AC8FA" >Session Mgr</text><text x="257" y="325" text-anchor="middle" font-size="8.5" font-weight="400" fill="#3A3A3C" >会话状态 · SSE</text>
<rect x="335" y="192" width="134" height="42" rx="7" fill="#FFFFFF" stroke="#BF5AF2" stroke-width="1.3" filter="url(#s1)"/><text x="402" y="207" text-anchor="middle" font-size="10" font-weight="600" fill="#BF5AF2" >Reply Agent</text><text x="402" y="221" text-anchor="middle" font-size="8.5" font-weight="400" fill="#3A3A3C" >编排 · 工具调用</text><line x1="402" y1="234" x2="402" y2="244" stroke="#BF5AF2" stroke-width="1.2" marker-end="url(#arr-core)"/><rect x="335" y="244" width="134" height="42" rx="7" fill="#FFFFFF" stroke="#BF5AF2" stroke-width="1.3" filter="url(#s1)"/><text x="402" y="259" text-anchor="middle" font-size="10" font-weight="600" fill="#BF5AF2" >Context Packet</text><text x="402" y="273" text-anchor="middle" font-size="8.5" font-weight="400" fill="#3A3A3C" >事实 · 历史装配</text><line x1="402" y1="286" x2="402" y2="296" stroke="#BF5AF2" stroke-width="1.2" marker-end="url(#arr-core)"/><rect x="335" y="296" width="134" height="42" rx="7" fill="#FFFFFF" stroke="#BF5AF2" stroke-width="1.3" filter="url(#s1)"/><text x="402" y="311" text-anchor="middle" font-size="10" font-weight="600" fill="#BF5AF2" >Model Router</text><text x="402" y="325" text-anchor="middle" font-size="8.5" font-weight="400" fill="#3A3A3C" >多模型调度 · 回退</text>
<rect x="488" y="192" width="117" height="42" rx="7" fill="#FFFFFF" stroke="#FF9F0A" stroke-width="1.3" filter="url(#s1)"/><text x="546" y="207" text-anchor="middle" font-size="10" font-weight="600" fill="#FF9F0A" >Raw Log</text><text x="546" y="221" text-anchor="middle" font-size="8.5" font-weight="400" fill="#3A3A3C" >原始对话记录</text>
<line x1="546" y1="234" x2="546" y2="244" stroke="#FF9F0A" stroke-width="1.1" marker-end="url(#arr-memory)"/>
<rect x="488" y="244" width="117" height="42" rx="7" fill="#FFFFFF" stroke="#FF9F0A" stroke-width="1.3" filter="url(#s1)"/><text x="546" y="259" text-anchor="middle" font-size="10" font-weight="600" fill="#FF9F0A" >Fact Triage</text><text x="546" y="273" text-anchor="middle" font-size="8.5" font-weight="400" fill="#3A3A3C" >事实分级粗筛</text>
<line x1="546" y1="286" x2="546" y2="296" stroke="#FF9F0A" stroke-width="1.1" marker-end="url(#arr-memory)"/>
<rect x="488" y="296" width="117" height="42" rx="7" fill="#FFFFFF" stroke="#FF9F0A" stroke-width="1.3" filter="url(#s1)"/><text x="546" y="311" text-anchor="middle" font-size="10" font-weight="600" fill="#FF9F0A" >Fact Extract</text><text x="546" y="325" text-anchor="middle" font-size="8.5" font-weight="400" fill="#3A3A3C" >精细事实抽取</text>
<rect x="613" y="192" width="117" height="42" rx="7" fill="#FFFFFF" stroke="#FF9F0A" stroke-width="1.3" filter="url(#s1)"/><text x="671" y="207" text-anchor="middle" font-size="10" font-weight="600" fill="#FF9F0A" >Reflection</text><text x="671" y="221" text-anchor="middle" font-size="8.5" font-weight="400" fill="#3A3A3C" >每日反思沉淀</text>
<line x1="671" y1="234" x2="671" y2="244" stroke="#FF9F0A" stroke-width="1.1" marker-end="url(#arr-memory)"/>
<rect x="613" y="244" width="117" height="42" rx="7" fill="#FFFFFF" stroke="#FF9F0A" stroke-width="1.3" filter="url(#s1)"/><text x="671" y="259" text-anchor="middle" font-size="10" font-weight="600" fill="#FF9F0A" >User Profile</text><text x="671" y="273" text-anchor="middle" font-size="8.5" font-weight="400" fill="#3A3A3C" >用户画像更新</text>
<line x1="671" y1="286" x2="671" y2="296" stroke="#FF9F0A" stroke-width="1.1" marker-end="url(#arr-memory)"/>
<rect x="613" y="296" width="117" height="42" rx="7" fill="#FFFFFF" stroke="#FF9F0A" stroke-width="1.3" filter="url(#s1)"/><text x="671" y="311" text-anchor="middle" font-size="10" font-weight="600" fill="#FF9F0A" >Retrieval Asm</text><text x="671" y="325" text-anchor="middle" font-size="8.5" font-weight="400" fill="#3A3A3C" >召回装配器</text>
<line x1="604" y1="213" x2="613" y2="213" stroke="#FF9F0A" stroke-width="1.4"  marker-end="url(#arr-memory)"/>
<line x1="604" y1="317" x2="613" y2="317" stroke="#FF9F0A" stroke-width="1.4"  marker-end="url(#arr-memory)"/>
<rect x="752" y="192" width="400" height="52" rx="8" fill="#EDE8FF" stroke="#5856D6" stroke-width="1.5" filter="url(#s1)"/>
<text x="952" y="210" text-anchor="middle" font-size="11" font-weight="700" fill="#5856D6" >主回复模型  Primary Reply Model</text>
<text x="952" y="226" text-anchor="middle" font-size="8.5" font-weight="400" fill="#3A3A3C" >GPT-4o / Claude-3.5 · 上下文 8K · Function Calling</text>
<rect x="752" y="254" width="200" height="44" rx="7" fill="#FFFFFF" stroke="#5856D6" stroke-width="1.3" filter="url(#s1)"/><text x="852" y="269" text-anchor="middle" font-size="10" font-weight="600" fill="#5856D6" >Support Model</text><text x="852" y="283" text-anchor="middle" font-size="8.5" font-weight="400" fill="#3A3A3C" >摘要 · 分类 · 标注</text>
<rect x="752" y="308" width="200" height="44" rx="7" fill="#FFFFFF" stroke="#5856D6" stroke-width="1.3" filter="url(#s1)"/><text x="852" y="323" text-anchor="middle" font-size="10" font-weight="600" fill="#5856D6" >Embedding Model</text><text x="852" y="337" text-anchor="middle" font-size="8.5" font-weight="400" fill="#3A3A3C" >向量化 · 语义检索</text>
<line x1="852" y1="298" x2="852" y2="308" stroke="#5856D6" stroke-width="1.1" marker-end="url(#arr-model)"/>
<rect x="960" y="254" width="200" height="44" rx="7" fill="#FFFFFF" stroke="#30D158" stroke-width="1.3" filter="url(#s1)"/><text x="1060" y="269" text-anchor="middle" font-size="10" font-weight="600" fill="#30D158" >PostgreSQL</text><text x="1060" y="283" text-anchor="middle" font-size="8.5" font-weight="400" fill="#3A3A3C" >结构化事实 · 用户画像</text>
<rect x="960" y="308" width="200" height="44" rx="7" fill="#FFFFFF" stroke="#30D158" stroke-width="1.3" filter="url(#s1)"/><text x="1060" y="323" text-anchor="middle" font-size="10" font-weight="600" fill="#30D158" >Vector Store</text><text x="1060" y="337" text-anchor="middle" font-size="8.5" font-weight="400" fill="#3A3A3C" >pgvector · 语义索引</text>
<rect x="960" y="362" width="200" height="44" rx="7" fill="#FFFFFF" stroke="#30D158" stroke-width="1.3" filter="url(#s1)"/><text x="1060" y="377" text-anchor="middle" font-size="10" font-weight="600" fill="#30D158" >Object Storage</text><text x="1060" y="391" text-anchor="middle" font-size="8.5" font-weight="400" fill="#3A3A3C" >媒体 · 附件 · 快照</text>
<line x1="1060" y1="298" x2="1060" y2="308" stroke="#30D158" stroke-width="1.1" marker-end="url(#arr-data)"/>
<line x1="1060" y1="352" x2="1060" y2="362" stroke="#30D158" stroke-width="1.1" marker-end="url(#arr-data)"/>
<line x1="952" y1="330" x2="960" y2="330" stroke="#5856D6" stroke-width="1.4"  marker-end="url(#arr-model)"/>
<polyline points="178,213 188,213 188,213 197,213" stroke="#007AFF" stroke-width="1.4" fill="none"  marker-end="url(#arr-client)"/>
<polyline points="317,317 326,317 326,213 335,213" stroke="#5AC8FA" stroke-width="1.4" fill="none"  marker-end="url(#arr-gateway)"/>
<polyline points="469,265 478,265 478,213 488,213" stroke="#BF5AF2" stroke-width="1.4" fill="none"  marker-end="url(#arr-core)"/>
<polyline points="469,271 484,271 484,317 613,317" stroke="#BF5AF2" stroke-width="1.4" fill="none"  marker-end="url(#arr-core)"/>
<polyline points="729,317 490,317 490,160 475,160 475,277" stroke="#FF9F0A" stroke-width="1.4" fill="none"  marker-end="url(#arr-memory)"/>
<polyline points="469,317 740,317 740,150 752,150 752,218" stroke="#5856D6" stroke-width="1.4" fill="none"  marker-end="url(#arr-model)"/>
<polyline points="752,330 734,330 734,325 729,325" stroke="#5856D6" stroke-width="1.4" fill="none" stroke-dasharray="5,3" marker-end="url(#arr-model)"/>
<rect x="20" y="644" width="1160" height="68" rx="10" fill="#FFFFFF" stroke="#D2D2D7" stroke-width="1" filter="url(#s1)"/>
<text x="38" y="658" text-anchor="start" font-size="8" font-weight="700" fill="#8E8E93" letter-spacing="0.6">异步记忆管道  Async Memory Pipeline</text>
<rect x="193" y="661" width="128" height="40" rx="7" fill="#FFF4E5" stroke="#FF9F0A" stroke-width="1.3" filter="url(#s1)"/>
<text x="257" y="675" text-anchor="middle" font-size="10" font-weight="600" fill="#FF9F0A" >Turn Extract</text>
<text x="257" y="688" text-anchor="middle" font-size="8.5" font-weight="400" fill="#3A3A3C" >事实 · 事件 · 情感抽取</text>
<rect x="338" y="661" width="128" height="40" rx="7" fill="#FFF4E5" stroke="#FF9F0A" stroke-width="1.3" filter="url(#s1)"/>
<text x="402" y="675" text-anchor="middle" font-size="10" font-weight="600" fill="#FF9F0A" >Daily Reflect</text>
<text x="402" y="688" text-anchor="middle" font-size="8.5" font-weight="400" fill="#3A3A3C" >每日开放问题沉淀</text>
<rect x="545" y="661" width="128" height="40" rx="7" fill="#FFF4E5" stroke="#FF9F0A" stroke-width="1.3" filter="url(#s1)"/>
<text x="609" y="675" text-anchor="middle" font-size="10" font-weight="600" fill="#FF9F0A" >Profile Update</text>
<text x="609" y="688" text-anchor="middle" font-size="8.5" font-weight="400" fill="#3A3A3C" >用户画像增量更新</text>
<rect x="808" y="661" width="128" height="40" rx="7" fill="#EDE8FF" stroke="#5856D6" stroke-width="1.3" filter="url(#s1)"/>
<text x="872" y="675" text-anchor="middle" font-size="10" font-weight="600" fill="#5856D6" >Vector Index</text>
<text x="872" y="688" text-anchor="middle" font-size="8.5" font-weight="400" fill="#3A3A3C" >pgvector 嵌入写入</text>
<line x1="321" y1="681" x2="338" y2="681" stroke="#FF9F0A" stroke-width="1.4"  marker-end="url(#arr-memory)"/>
<line x1="466" y1="681" x2="545" y2="681" stroke="#FF9F0A" stroke-width="1.4"  marker-end="url(#arr-memory)"/>
<line x1="673" y1="681" x2="808" y2="681" stroke="#FF9F0A" stroke-width="1.4"  marker-end="url(#arr-memory)"/>
<polyline points="488,265 482,265 482,639 257,639 257,661" stroke="#FF9F0A" stroke-width="1.4" fill="none" stroke-dasharray="5,3" marker-end="url(#arr-memory)"/>
<rect x="980" y="652" width="196" height="56" rx="8" fill="#FFFFFF" stroke="#D2D2D7" stroke-width="1" />
<text x="992" y="665" text-anchor="start" font-size="7.5" font-weight="700" fill="#6E6E73" letter-spacing="0.8">LEGEND</text>
<line x1="992" y1="678" x2="1018" y2="678" stroke="#8E8E93" stroke-width="1.6" marker-end="url(#arr-gray)"/>
<text x="1024" y="681" text-anchor="start" font-size="8" font-weight="400" fill="#3A3A3C" >同步数据流</text>
<line x1="992" y1="696" x2="1018" y2="696" stroke="#5856D6" stroke-width="1.4" stroke-dasharray="4,2" marker-end="url(#arr-model)"/>
<text x="1024" y="699" text-anchor="start" font-size="8" font-weight="400" fill="#3A3A3C" >模型辅助 / 异步写入</text>
</svg>